<svg width="60" height="56" viewBox="0 0 60 56" fill="none" xmlns="http://www.w3.org/2000/svg">
<path d="M57.6699 44.4808L47.8294 54.326H11.7477L1.90723 44.4808L10.1076 10.0223L18.4465 1.81787H41.1306L49.4695 10.0223L57.6699 44.4808Z" fill="#09090A"/>
<path d="M41.8021 0.178467L50.9554 9.18428L59.477 44.992L48.5088 55.9655H11.0686L0.100586 44.992L8.62203 9.18428L17.7755 0.178467H41.8021ZM11.5935 10.8603L3.7142 43.9694L12.4271 52.6866H47.1505L55.8632 43.9694L47.9839 10.8603L40.4596 3.4573H19.1178L11.5935 10.8603Z" fill="#FAFBFC"/>
<path d="M15.0273 36.2764H18.3075L24.8678 29.7129H15.0273V36.2764Z" fill="#FAFBFC"/>
<path d="M44.5487 29.7132V37.9176L34.7082 47.7629H29.8026L29.788 41.1994H33.0517L33.0681 39.5585H26.5078V37.9176H31.4281V36.2767L28.1479 32.995V21.5088H31.4281V26.4314L34.7082 29.7132H44.5487Z" fill="#FAFBFC"/>
</svg>
